<svg width="35" height="35" viewBox="0 0 35 35" fill="none" xmlns="http://www.w3.org/2000/svg">
    <path d="M1.5 3.50134C1.5 2.97091 1.71071 2.4622 2.08579 2.08713C2.46086 1.71206 2.96957 1.50134 3.5 1.50134H7.5C8.03043 1.50134 8.53914 1.71206 8.91421 2.08713C9.28929 2.4622 9.5 2.97091 9.5 3.50134V31.5013C9.5 32.0318 9.28929 32.5405 8.91421 32.9156C8.53914 33.2906 8.03043 33.5013 7.5 33.5013H3.5C2.96957 33.5013 2.46086 33.2906 2.08579 32.9156C1.71071 32.5405 1.5 32.0318 1.5 31.5013V3.50134Z" stroke="#E5E5E5" stroke-width="3" stroke-linecap="round" stroke-linejoin="round"/>
    <path d="M9.5 3.50134C9.5 2.97091 9.71071 2.4622 10.0858 2.08713C10.4609 1.71206 10.9696 1.50134 11.5 1.50134H15.5C16.0304 1.50134 16.5391 1.71206 16.9142 2.08713C17.2893 2.4622 17.5 2.97091 17.5 3.50134V31.5013C17.5 32.0318 17.2893 32.5405 16.9142 32.9156C16.5391 33.2906 16.0304 33.5013 15.5 33.5013H11.5C10.9696 33.5013 10.4609 33.2906 10.0858 32.9156C9.71071 32.5405 9.5 32.0318 9.5 31.5013V3.50134Z" stroke="#E5E5E5" stroke-width="3" stroke-linecap="round" stroke-linejoin="round"/>
    <path d="M1.5 9.50134H9.5" stroke="#E5E5E5" stroke-width="3" stroke-linecap="round" stroke-linejoin="round"/>
    <path d="M9.5 25.5013H17.5" stroke="#E5E5E5" stroke-width="3" stroke-linecap="round" stroke-linejoin="round"/>
    <path d="M19.1022 2.62045L23.4702 1.56045C24.5942 1.29045 25.7362 1.94045 26.0342 3.02445L33.4242 29.8605C33.5546 30.3518 33.4969 30.874 33.2623 31.325C33.0278 31.7759 32.6333 32.1231 32.1562 32.2985L31.8902 32.3805L27.5222 33.4404C26.3982 33.7104 25.2562 33.0605 24.9582 31.9765L17.5682 5.14045C17.4379 4.64915 17.4956 4.12688 17.7302 3.67592C17.9647 3.22496 18.3591 2.87781 18.8362 2.70245L19.1022 2.62045Z" stroke="#E5E5E5" stroke-width="3" stroke-linecap="round" stroke-linejoin="round"/>
    <path d="M19.5 11.5013L27.5 9.50134" stroke="#E5E5E5" stroke-width="3" stroke-linecap="round" stroke-linejoin="round"/>
    <path d="M23.5 25.5004L31.346 23.5404" stroke="#E5E5E5" stroke-linecap="round" stroke-linejoin="round"/>
</svg>