<svg width="34" height="35" viewBox="0 0 34 35" fill="none" xmlns="http://www.w3.org/2000/svg">
    <path d="M3 19.5C3 21.3385 3.36212 23.159 4.06569 24.8576C4.76925 26.5561 5.80048 28.0995 7.1005 29.3995C8.40053 30.6995 9.94387 31.7307 11.6424 32.4343C13.341 33.1379 15.1615 33.5 17 33.5C18.8385 33.5 20.659 33.1379 22.3576 32.4343C24.0561 31.7307 25.5995 30.6995 26.8995 29.3995C28.1995 28.0995 29.2307 26.5561 29.9343 24.8576C30.6379 23.159 31 21.3385 31 19.5C31 17.6615 30.6379 15.841 29.9343 14.1424C29.2307 12.4439 28.1995 10.9005 26.8995 9.60051C25.5995 8.30049 24.0561 7.26925 22.3576 6.56569C20.659 5.86212 18.8385 5.5 17 5.5C15.1615 5.5 13.341 5.86212 11.6424 6.56569C9.94387 7.26925 8.40053 8.30049 7.1005 9.60051C5.80048 10.9005 4.76925 12.4439 4.06569 14.1424C3.36212 15.841 3 17.6615 3 19.5Z" stroke="#E5E5E5" stroke-width="3" stroke-linecap="round" stroke-linejoin="round"/>
    <path d="M17 13.5V19.5H21" stroke="#E5E5E5" stroke-width="3" stroke-linecap="round" stroke-linejoin="round"/>
    <path d="M7 1.5L1.5 5.5" stroke="#E5E5E5" stroke-width="3" stroke-linecap="round" stroke-linejoin="round"/>
    <path d="M27 1.5L32.5 5.5" stroke="#E5E5E5" stroke-width="3" stroke-linecap="round" stroke-linejoin="round"/>
</svg>