<svg width="44" height="36" viewBox="0 0 44 36" fill="none" xmlns="http://www.w3.org/2000/svg">
    <path d="M10.9091 27.6C8.41365 27.6 6.02041 26.6518 4.25586 24.964C2.49131 23.2761 1.5 20.9869 1.5 18.6C1.5 16.2131 2.49131 13.9239 4.25586 12.236C6.02041 10.5482 8.41365 9.6 10.9091 9.6C11.4985 6.97436 13.2226 4.66697 15.7023 3.18543C16.9301 2.45185 18.3064 1.9431 19.7526 1.68823C21.1989 1.43336 22.6868 1.43736 24.1313 1.7C25.5759 1.96264 26.9488 2.47879 28.1717 3.21896C29.3946 3.95913 30.4435 4.90884 31.2586 6.01386C32.0737 7.11887 32.639 8.35756 32.9222 9.65919C33.2054 10.9608 33.2009 12.2999 32.9091 13.6H34.9091C36.7656 13.6 38.5461 14.3375 39.8588 15.6503C41.1716 16.963 41.9091 18.7435 41.9091 20.6C41.9091 22.4565 41.1716 24.237 39.8588 25.5497C38.5461 26.8625 36.7656 27.6 34.9091 27.6H32.9091" stroke="#E5E5E5" stroke-width="3" stroke-linecap="round" stroke-linejoin="round"/>
    <path d="M14.9062 21.5996L20.9062 15.5996L26.9062 21.5996" stroke="#E5E5E5" stroke-width="3" stroke-linecap="round" stroke-linejoin="round"/>
    <path d="M20.9062 15.5996V33.5996" stroke="#E5E5E5" stroke-width="3" stroke-linecap="round" stroke-linejoin="round"/>
</svg>