<svg width="39" height="39" viewBox="0 0 39 39" fill="none" xmlns="http://www.w3.org/2000/svg">
    <path d="M5.5 7.5C5.5 6.96957 5.71071 6.46086 6.08579 6.08579C6.46086 5.71071 6.96957 5.5 7.5 5.5H31.5C32.0304 5.5 32.5391 5.71071 32.9142 6.08579C33.2893 6.46086 33.5 6.96957 33.5 7.5V31.5C33.5 32.0304 33.2893 32.5391 32.9142 32.9142C32.5391 33.2893 32.0304 33.5 31.5 33.5H7.5C6.96957 33.5 6.46086 33.2893 6.08579 32.9142C5.71071 32.5391 5.5 32.0304 5.5 31.5V7.5Z" stroke="#E5E5E5" stroke-width="3" stroke-linecap="round" stroke-linejoin="round"/>
    <path d="M13.5 13.5H25.5V25.5H13.5V13.5Z" stroke="#E5E5E5" stroke-width="3" stroke-linecap="round" stroke-linejoin="round"/>
    <path d="M1.5 15.5H5.5" stroke="#E5E5E5" stroke-width="3" stroke-linecap="round" stroke-linejoin="round"/>
    <path d="M1.5 23.5H5.5" stroke="#E5E5E5" stroke-width="3" stroke-linecap="round" stroke-linejoin="round"/>
    <path d="M15.5 1.5V5.5" stroke="#E5E5E5" stroke-width="3" stroke-linecap="round" stroke-linejoin="round"/>
    <path d="M23.5 1.5V5.5" stroke="#E5E5E5" stroke-width="3" stroke-linecap="round" stroke-linejoin="round"/>
    <path d="M37.5 15.5H33.5" stroke="#E5E5E5" stroke-width="3" stroke-linecap="round" stroke-linejoin="round"/>
    <path d="M37.5 23.5H33.5" stroke="#E5E5E5" stroke-width="3" stroke-linecap="round" stroke-linejoin="round"/>
    <path d="M23.5 37.5V33.5" stroke="#E5E5E5" stroke-width="3" stroke-linecap="round" stroke-linejoin="round"/>
    <path d="M15.5 37.5V33.5" stroke="#E5E5E5" stroke-width="3" stroke-linecap="round" stroke-linejoin="round"/>
</svg>