<svg width="20" height="20" viewBox="0 0 20 20" fill="none" xmlns="http://www.w3.org/2000/svg">
  <path d="M7 2H5C4.46957 2 3.96086 2.21071 3.58579 2.58579C3.21071 2.96086 3 3.46957 3 4V17C3 17.5304 3.21071 18.0391 3.58579 18.4142C3.96086 18.7893 4.46957 19 5 19H15C15.5304 19 16.0391 18.7893 16.4142 18.4142C16.7893 18.0391 17 17.5304 17 17V4C17 3.46957 16.7893 2.96086 16.4142 2.58579C16.0391 2.21071 15.5304 2 15 2H13" stroke="currentColor" stroke-width="1.5" stroke-linecap="round" stroke-linejoin="round"/>
  <path d="M7 2C7 1.46957 7.21071 0.96086 7.58579 0.58579C7.96086 0.21071 8.46957 0 9 0H11C11.5304 0 12.0391 0.21071 12.4142 0.58579C12.7893 0.96086 13 1.46957 13 2C13 2.53043 12.7893 3.03914 12.4142 3.41421C12.0391 3.78929 11.5304 4 11 4H9C8.46957 4 7.96086 3.78929 7.58579 3.41421C7.21071 3.03914 7 2.53043 7 2Z" stroke="currentColor" stroke-width="1.5" stroke-linecap="round" stroke-linejoin="round"/>
  <path d="M7 10H13" stroke="currentColor" stroke-width="1.5" stroke-linecap="round"/>
  <path d="M7 14H11" stroke="currentColor" stroke-width="1.5" stroke-linecap="round"/>
</svg>
